<?xml version="1.0" encoding="UTF-8" standalone="no"?>
<!DOCTYPE svg PUBLIC "-//W3C//DTD SVG 1.1//EN" "http://www.w3.org/Graphics/SVG/1.1/DTD/svg11.dtd">
<svg width="100%" height="100%" viewBox="0 0 458 74" version="1.1" xmlns="http://www.w3.org/2000/svg" xmlns:xlink="http://www.w3.org/1999/xlink" xml:space="preserve" xmlns:serif="http://www.serif.com/" style="fill-rule:evenodd;clip-rule:evenodd;stroke-linejoin:round;stroke-miterlimit:2;">
    <g id="Layer_1-2">
        <g>
            <path d="M81.59,0C72.44,0 64.11,3.39 57.71,8.97C50.13,15.57 45.3,25.25 45.19,36.06L45.19,42.34C45.19,48.03 43.37,52.59 40.64,55.55C38.43,57.76 35.75,59.19 32.44,59.79C31.32,59.97 30.16,60.09 28.93,60.09C23.92,60.09 20.05,58.5 17.09,55.54C14.36,52.58 12.54,48.03 12.54,42.33L12.54,1.91L0,1.91L0,42.55C0,49.06 1.46,55.12 4.44,60.08C5.12,61.22 5.9,62.31 6.76,63.34C6.87,63.48 6.96,63.61 7.06,63.73C11.52,69.04 18.17,72.31 26.96,72.75C27.57,72.8 28.19,72.86 28.8,72.86C38.59,72.86 45.87,69.44 50.66,63.75C51.93,62.25 53.44,59.79 53.53,59.63C60.2,67.71 70.31,72.86 81.6,72.86C88.48,72.86 94.87,70.92 100.36,67.62L91.87,58.03C88.77,59.51 85.31,60.35 81.65,60.35C68.45,60.35 57.75,49.65 57.75,36.44C57.75,23.23 68.45,12.53 81.65,12.53C94.85,12.53 105.55,23.23 105.55,36.44C105.55,41.43 104,46.07 101.38,49.92L109.83,59.46C114.95,53.18 118.03,45.18 118.03,36.46C118.02,16.3 101.72,0 81.59,0Z" style="fill:rgb(108,183,187);fill-rule:nonzero;"/>
            <path d="M170.22,1.89L170.22,45.29C170.22,54.81 164.05,61.21 154.85,61.21C145.65,61.21 139.69,54.97 139.69,45.29L139.69,1.89L127.78,1.89L127.78,45.29C127.78,61.36 139.16,73.02 154.85,73.02C170.54,73.02 182.1,61.36 182.1,45.29L182.1,1.89L170.19,1.89L170.22,1.89Z" style="fill:rgb(108,183,187);fill-rule:nonzero;"/>
            <path d="M222.95,1.89L213.68,1.89L184.9,72.09L197.76,72.09L203.63,57.45L232.68,57.45L238.55,72.09L251.41,72.09L222.95,1.89ZM228.12,46.01L208.25,46.01L218.22,21.26L228.12,46.01Z" style="fill:rgb(108,183,187);fill-rule:nonzero;"/>
            <path d="M270.74,60.48L270.74,1.89L258.86,1.89L258.86,72.09L301.25,72.09L301.25,60.48L270.74,60.48Z" style="fill:rgb(108,183,187);fill-rule:nonzero;"/>
            <rect x="315.17" y="1.89" width="11.91" height="70.2" style="fill:rgb(108,183,187);fill-rule:nonzero;"/>
            <path d="M387.1,13.32L387.1,1.89L341.91,1.89L341.91,72.09L353.79,72.09L353.79,43.45L384.39,43.45L384.39,32.23L353.79,32.23L353.79,13.32L387.1,13.32Z" style="fill:rgb(108,183,187);fill-rule:nonzero;"/>
            <path d="M443.17,1.89L424.82,33.65L406.56,1.89L392.47,1.89L418.65,46.33L418.65,72.08L430.81,72.08L430.81,46.24L457.19,1.89L443.17,1.89Z" style="fill:rgb(108,183,187);fill-rule:nonzero;"/>
        </g>
    </g>
</svg>
